<svg width="201" height="44" fill="none" xmlns="http://www.w3.org/2000/svg"><g clip-path="url(#clip0_230_265)" fill="#fff"><path fill-rule="evenodd" clip-rule="evenodd" d="M139.05 27.76a4.927 4.927 0 003.87-1.54V22h-4.61v2h2.56v1.31a3 3 0 01-1.82.46 2.77 2.77 0 010-5.54v-2a4.81 4.81 0 100 9.61v-.08zm-31.81 12.82h1.54v-7.89h2.44v-1.51h-6.4v1.51h2.42v7.89zm16.21.11a4.452 4.452 0 003.23-1.27l-1-1a3.189 3.189 0 01-2.19.85 3.353 3.353 0 01-3.363-2.926 3.36 3.36 0 011.096-2.926 3.354 3.354 0 013.034-.75 3.349 3.349 0 011.423.752l1-1a4.434 4.434 0 00-3.23-1.26 4.813 4.813 0 00-4.642 2.914 4.821 4.821 0 000 3.782 4.817 4.817 0 002.735 2.613c.609.228 1.258.33 1.907.3v-.08zm4.76-.11h1.53v-3.94h4.66v3.94h1.54v-9.4h-1.54v3.95h-4.66v-3.95h-1.53v9.4zm16.24 0h1.54v-9.4h-1.54v5.5l-6.42-5.61v9.51h1.54v-6.17l4.88 4.25v1.92zm7.9-1.35a3.351 3.351 0 113.24-3.35 3.239 3.239 0 01-3.24 3.35zm0 1.46a4.81 4.81 0 10-4.81-4.81 4.749 4.749 0 004.81 4.81zm6.35-.11h5.5v-1.51h-3.96v-7.89h-1.54v9.4zm10.45-1.35a3.347 3.347 0 01-3.165-1.997 3.348 3.348 0 012.374-4.63 3.35 3.35 0 014.041 3.277 3.233 3.233 0 01-.913 2.366 3.228 3.228 0 01-2.337.984zm0 1.46a4.81 4.81 0 10-4.81-4.81 4.753 4.753 0 004.81 4.81zm10.62 0a5.349 5.349 0 003.46-1.21v-4.35h-4.45v1.51h2.91v2.09a3.707 3.707 0 01-1.92.5 3.349 3.349 0 01-2.368-5.719 3.348 3.348 0 012.368-.98v-1.45a4.81 4.81 0 000 9.61z"/><path d="M186.72 31.18h-1.54v9.4h1.54v-9.4z"/><path fill-rule="evenodd" clip-rule="evenodd" d="M197.85 40.69a2.688 2.688 0 003-2.68c0-1.31-.87-2.11-2.16-2.68L198 35c-.95-.41-1.36-.82-1.36-1.44a1.126 1.126 0 01.414-.763 1.13 1.13 0 01.836-.237 1.871 1.871 0 011.58.84l1.06-1.1a3.15 3.15 0 00-2.63-1.19 2.639 2.639 0 00-2.8 2.48 3 3 0 002.12 2.75l.74.31c1 .41 1.37.82 1.37 1.53 0 .71-.53 1.08-1.44 1.08a2.575 2.575 0 01-2-1.12l-1.17 1a3.628 3.628 0 003.13 1.55zm-88.04-12.93a4.927 4.927 0 003.87-1.54V22h-4.61v2h2.56v1.31a3 3 0 01-1.82.46 2.77 2.77 0 110-5.54v-2a4.807 4.807 0 00-4.642 2.914 4.804 4.804 0 001.1 5.369 4.807 4.807 0 003.542 1.327v-.08zm5.29-.11h2.11v-3h1a3.188 3.188 0 002.255-5.446 3.188 3.188 0 00-2.255-.934h-3.11v9.4-.02zm2.11-5v-2.41h1a1.209 1.209 0 01.855 2.066 1.209 1.209 0 01-.855.354l-1-.01zm9.02 5.11a3.71 3.71 0 003.86-3.92v-5.59H128v5.62a1.742 1.742 0 01-1.735 1.872 1.737 1.737 0 01-1.643-1.167 1.742 1.742 0 01-.092-.705v-5.62h-2.12v5.59a3.694 3.694 0 001.043 2.804 3.706 3.706 0 002.777 1.116zm22.47-2.04a2.773 2.773 0 01-2.627-1.658 2.767 2.767 0 01.565-3.055 2.766 2.766 0 013.046-.61A2.77 2.77 0 01151.38 23a2.692 2.692 0 01-.758 1.948 2.706 2.706 0 01-1.922.822v-.05zm0 2a4.808 4.808 0 004.721-5.776 4.805 4.805 0 00-3.825-3.761A4.809 4.809 0 00143.9 23a4.82 4.82 0 004.8 4.76v-.04zm8.3-2v-5.54h1.18a2.77 2.77 0 010 5.54H157zm-2.12 1.93h3.3a4.7 4.7 0 000-9.4h-3.3v9.4z"/><path d="M117.56 31.18h-5.62v1.51h5.62v-1.51zm0 7.89h-5.62v1.51h5.62v-1.51zm0-3.94h-5.62v1.51h5.62v-1.51zm76.28-3.95h-5.62v1.51h5.62v-1.51zm0 7.89h-5.62v1.51h5.62v-1.51zm0-3.94h-5.62v1.51h5.62v-1.51z"/><path fill-rule="evenodd" clip-rule="evenodd" d="M25.38 18.13v25.08c-1.2.197-2.414.297-3.63.3A21.75 21.75 0 010 21.75V0h7.25v5.54a21.76 21.76 0 0129 0V0h7.25v21.75A21.75 21.75 0 0132.63 40.6v-9.25a14.5 14.5 0 10-14.5 4.45V25.38H11.5a10.91 10.91 0 010-7.25h13.88zM76.14 7.71V35.8a14.51 14.51 0 000-28.09zM68.89 35.8V25.38h-6.63a10.91 10.91 0 010-7.25h6.63V7.71a14.51 14.51 0 000 28.09zM72.51 0a21.76 21.76 0 11-21.75 21.75A21.75 21.75 0 0172.51 0z"/></g><defs><clipPath id="clip0_230_265"><path fill="#fff" d="M0 0h200.84v43.51H0z"/></clipPath></defs></svg>