<svg width="201" height="44" viewBox="0 0 201 44" fill="none" xmlns="http://www.w3.org/2000/svg">
<g clip-path="url(#clip0_230_265)">
<path fill-rule="evenodd" clip-rule="evenodd" d="M139.05 27.7601C139.768 27.8014 140.487 27.6849 141.155 27.4189C141.824 27.1528 142.426 26.7437 142.92 26.2201V22.0001H138.31V24.0001H140.87V25.3101C140.328 25.6542 139.69 25.8154 139.05 25.7701C138.315 25.7701 137.611 25.4783 137.091 24.9588C136.572 24.4393 136.28 23.7347 136.28 23.0001C136.28 22.2654 136.572 21.5609 137.091 21.0414C137.611 20.5219 138.315 20.2301 139.05 20.2301V18.2301C138.4 18.2005 137.752 18.3028 137.143 18.5309C136.534 18.759 135.978 19.1082 135.508 19.5573C135.038 20.0064 134.664 20.5461 134.408 21.1439C134.152 21.7416 134.021 22.385 134.021 23.0351C134.021 23.6852 134.152 24.3286 134.408 24.9263C134.664 25.5241 135.038 26.0638 135.508 26.5129C135.978 26.962 136.534 27.3112 137.143 27.5393C137.752 27.7674 138.4 27.8697 139.05 27.8401V27.7601Z" fill="white"/>
<path fill-rule="evenodd" clip-rule="evenodd" d="M107.24 40.5802H108.78V32.6902H111.22V31.1802H104.82V32.6902H107.24V40.5802Z" fill="white"/>
<path fill-rule="evenodd" clip-rule="evenodd" d="M123.45 40.6898C124.046 40.7053 124.639 40.6008 125.194 40.3827C125.749 40.1645 126.254 39.8371 126.68 39.4198L125.68 38.4198C125.085 38.9714 124.302 39.2753 123.49 39.2698C122.946 39.2762 122.408 39.1499 121.923 38.9016C121.439 38.6534 121.022 38.2908 120.709 37.8452C120.396 37.3996 120.196 36.8844 120.127 36.3443C120.059 35.8042 120.122 35.2555 120.313 34.7455C120.504 34.2356 120.816 33.7799 121.223 33.4178C121.63 33.0558 122.119 32.7983 122.647 32.6678C123.176 32.5372 123.728 32.5374 124.257 32.6685C124.785 32.7995 125.274 33.0574 125.68 33.4198L126.68 32.4198C126.254 32.0038 125.748 31.6779 125.193 31.4615C124.638 31.245 124.046 31.1424 123.45 31.1598C122.801 31.1302 122.152 31.2325 121.543 31.4606C120.934 31.6887 120.378 32.0378 119.908 32.4869C119.438 32.936 119.064 33.4758 118.808 34.0735C118.553 34.6713 118.421 35.3147 118.421 35.9648C118.421 36.6149 118.553 37.2583 118.808 37.856C119.064 38.4538 119.438 38.9935 119.908 39.4426C120.378 39.8917 120.934 40.2409 121.543 40.469C122.152 40.6971 122.801 40.7994 123.45 40.7698V40.6898Z" fill="white"/>
<path fill-rule="evenodd" clip-rule="evenodd" d="M128.21 40.5802H129.74V36.6402H134.4V40.5802H135.94V31.1802H134.4V35.1302H129.74V31.1802H128.21V40.5802Z" fill="white"/>
<path fill-rule="evenodd" clip-rule="evenodd" d="M144.45 40.5798H145.99V31.1798H144.45V36.6798L138.03 31.0698V40.5798H139.57V34.4098L144.45 38.6598V40.5798Z" fill="white"/>
<path fill-rule="evenodd" clip-rule="evenodd" d="M152.35 39.2298C151.684 39.2517 151.025 39.074 150.46 38.7195C149.895 38.365 149.449 37.8498 149.178 37.2399C148.908 36.63 148.825 35.9532 148.942 35.2963C149.059 34.6394 149.369 34.0323 149.832 33.5527C150.296 33.0731 150.893 32.743 151.545 32.6045C152.198 32.4661 152.877 32.5257 153.496 32.7757C154.114 33.0257 154.644 33.4547 155.017 34.0077C155.391 34.5608 155.59 35.2127 155.59 35.8798C155.605 36.3145 155.532 36.7476 155.376 37.1535C155.22 37.5594 154.984 37.9297 154.681 38.2423C154.379 38.5549 154.017 38.8034 153.616 38.9731C153.216 39.1428 152.785 39.2301 152.35 39.2298ZM152.35 40.6898C153.302 40.6898 154.232 40.4077 155.023 39.8792C155.814 39.3507 156.43 38.5994 156.794 37.7205C157.158 36.8416 157.254 35.8745 157.068 34.9414C156.882 34.0084 156.424 33.1513 155.752 32.4786C155.079 31.806 154.222 31.3478 153.289 31.1622C152.356 30.9767 151.389 31.0719 150.51 31.436C149.631 31.8 148.88 32.4165 148.351 33.2075C147.823 33.9985 147.54 34.9285 147.54 35.8798C147.532 36.5137 147.651 37.1428 147.89 37.73C148.129 38.3172 148.483 38.8507 148.931 39.299C149.38 39.7472 149.913 40.1012 150.5 40.3401C151.087 40.579 151.717 40.6979 152.35 40.6898Z" fill="white"/>
<path fill-rule="evenodd" clip-rule="evenodd" d="M158.7 40.5802H164.2V39.0702H160.24V31.1802H158.7V40.5802Z" fill="white"/>
<path fill-rule="evenodd" clip-rule="evenodd" d="M169.15 39.2298C168.484 39.2497 167.826 39.0703 167.263 38.7145C166.699 38.3587 166.254 37.8427 165.985 37.2326C165.716 36.6225 165.635 35.946 165.753 35.2897C165.871 34.6335 166.181 34.0272 166.646 33.5487C167.11 33.0701 167.706 32.741 168.359 32.6034C169.011 32.4658 169.69 32.5261 170.308 32.7764C170.926 33.0268 171.455 33.4558 171.828 34.0087C172.201 34.5616 172.4 35.2131 172.4 35.8798C172.415 36.3153 172.342 36.7493 172.185 37.1559C172.028 37.5624 171.791 37.9332 171.487 38.2459C171.184 38.5587 170.821 38.807 170.419 38.976C170.017 39.1451 169.586 39.2314 169.15 39.2298ZM169.15 40.6898C170.101 40.6898 171.031 40.4077 171.822 39.8792C172.613 39.3507 173.23 38.5994 173.594 37.7205C173.958 36.8416 174.053 35.8745 173.868 34.9414C173.682 34.0084 173.224 33.1513 172.551 32.4786C171.879 31.806 171.022 31.3478 170.088 31.1622C169.155 30.9767 168.188 31.0719 167.309 31.436C166.43 31.8 165.679 32.4165 165.151 33.2075C164.622 33.9985 164.34 34.9285 164.34 35.8798C164.333 36.5133 164.453 37.1418 164.693 37.7284C164.932 38.315 165.286 38.8479 165.734 39.2959C166.182 39.7439 166.715 40.098 167.302 40.3373C167.888 40.5767 168.517 40.6965 169.15 40.6898Z" fill="white"/>
<path fill-rule="evenodd" clip-rule="evenodd" d="M179.77 40.6901C181.03 40.7067 182.256 40.2782 183.23 39.4801V35.1301H178.78V36.6401H181.69V38.7301C181.108 39.068 180.444 39.2408 179.77 39.2301C178.882 39.2301 178.03 38.8771 177.402 38.2489C176.773 37.6206 176.42 36.7686 176.42 35.8801C176.42 34.9916 176.773 34.1395 177.402 33.5113C178.03 32.883 178.882 32.5301 179.77 32.5301V31.0801C178.534 31.1365 177.367 31.6674 176.512 32.5623C175.657 33.4573 175.18 34.6473 175.18 35.8851C175.18 37.1228 175.657 38.3129 176.512 39.2078C177.367 40.1028 178.534 40.6337 179.77 40.6901Z" fill="white"/>
<path d="M186.72 31.1802H185.18V40.5802H186.72V31.1802Z" fill="white"/>
<path fill-rule="evenodd" clip-rule="evenodd" d="M197.85 40.6901C198.227 40.7339 198.61 40.6972 198.972 40.5824C199.335 40.4676 199.668 40.2774 199.952 40.0241C200.235 39.7709 200.462 39.4605 200.617 39.1134C200.771 38.7662 200.851 38.3902 200.85 38.0101C200.85 36.7001 199.98 35.9001 198.69 35.3301L198 35.0001C197.05 34.5901 196.64 34.1801 196.64 33.5601C196.655 33.4118 196.699 33.2679 196.77 33.1369C196.841 33.0059 196.938 32.8904 197.054 32.7973C197.171 32.7042 197.305 32.6352 197.448 32.5945C197.592 32.5537 197.742 32.5421 197.89 32.5601C198.202 32.5569 198.511 32.6321 198.787 32.7789C199.063 32.9256 199.298 33.1392 199.47 33.4001L200.53 32.3001C200.218 31.9059 199.817 31.592 199.36 31.385C198.902 31.1779 198.401 31.0836 197.9 31.1101C197.553 31.0885 197.205 31.1355 196.877 31.2485C196.548 31.3615 196.245 31.5383 195.985 31.7687C195.725 31.9991 195.513 32.2786 195.361 32.5912C195.209 32.9037 195.12 33.2432 195.1 33.5901C195.124 34.2117 195.342 34.8103 195.721 35.303C196.101 35.7957 196.625 36.1581 197.22 36.3401L197.96 36.6501C198.96 37.0601 199.33 37.4701 199.33 38.1801C199.33 38.8901 198.8 39.2601 197.89 39.2601C197.493 39.2402 197.105 39.1287 196.759 38.9344C196.412 38.7401 196.114 38.4683 195.89 38.1401L194.72 39.1401C195.069 39.6408 195.539 40.0454 196.086 40.3163C196.633 40.5872 197.24 40.7158 197.85 40.6901Z" fill="white"/>
<path fill-rule="evenodd" clip-rule="evenodd" d="M109.81 27.7601C110.528 27.8014 111.247 27.6849 111.915 27.4189C112.584 27.1528 113.186 26.7437 113.68 26.2201V22.0001H109.07V24.0001H111.63V25.3101C111.088 25.6542 110.45 25.8154 109.81 25.7701C109.075 25.7701 108.37 25.4783 107.851 24.9588C107.331 24.4393 107.04 23.7347 107.04 23.0001C107.04 22.2654 107.331 21.5609 107.851 21.0414C108.37 20.5219 109.075 20.2301 109.81 20.2301V18.2301C109.16 18.2005 108.511 18.3028 107.903 18.5309C107.294 18.759 106.738 19.1082 106.268 19.5573C105.797 20.0064 105.423 20.5461 105.168 21.1439C104.912 21.7416 104.78 22.385 104.78 23.0351C104.78 23.6852 104.912 24.3286 105.168 24.9263C105.423 25.5241 105.797 26.0638 106.268 26.5129C106.738 26.962 107.294 27.3112 107.903 27.5393C108.511 27.7674 109.16 27.8697 109.81 27.8401V27.7601Z" fill="white"/>
<path fill-rule="evenodd" clip-rule="evenodd" d="M115.1 27.65H117.21V24.65H118.21C119.056 24.65 119.867 24.3139 120.465 23.7157C121.064 23.1174 121.4 22.3061 121.4 21.46C121.4 20.614 121.064 19.8026 120.465 19.2043C119.867 18.6061 119.056 18.27 118.21 18.27H115.1V27.67V27.65ZM117.21 22.65V20.24H118.21C118.531 20.24 118.838 20.3675 119.065 20.5944C119.292 20.8213 119.42 21.1291 119.42 21.45C119.42 21.7709 119.292 22.0787 119.065 22.3056C118.838 22.5325 118.531 22.66 118.21 22.66L117.21 22.65Z" fill="white"/>
<path fill-rule="evenodd" clip-rule="evenodd" d="M126.23 27.76C126.748 27.7818 127.265 27.6949 127.747 27.5048C128.229 27.3147 128.666 27.0257 129.03 26.6563C129.393 26.287 129.676 25.8456 129.858 25.3605C130.041 24.8754 130.12 24.3575 130.09 23.84V18.25H128V23.87C128.018 24.1089 127.987 24.349 127.908 24.5752C127.829 24.8015 127.704 25.0089 127.541 25.1847C127.378 25.3604 127.181 25.5006 126.961 25.5965C126.742 25.6923 126.505 25.7418 126.265 25.7418C126.025 25.7418 125.788 25.6923 125.569 25.5965C125.349 25.5006 125.152 25.3604 124.989 25.1847C124.826 25.0089 124.701 24.8015 124.622 24.5752C124.543 24.349 124.512 24.1089 124.53 23.87V18.25H122.41V23.84C122.379 24.3543 122.456 24.8695 122.636 25.3524C122.815 25.8353 123.094 26.2754 123.453 26.6444C123.813 27.0135 124.246 27.3033 124.724 27.4954C125.202 27.6875 125.715 27.7776 126.23 27.76Z" fill="white"/>
<path fill-rule="evenodd" clip-rule="evenodd" d="M148.7 25.7201C148.147 25.738 147.601 25.5896 147.132 25.2941C146.664 24.9986 146.295 24.5695 146.073 24.0622C145.851 23.5549 145.786 22.9928 145.887 22.4482C145.987 21.9037 146.249 21.4019 146.638 21.0074C147.026 20.613 147.524 20.3441 148.067 20.2354C148.61 20.1267 149.173 20.1833 149.684 20.3978C150.194 20.6123 150.629 20.9749 150.931 21.4387C151.234 21.9026 151.39 22.4464 151.38 23.0001C151.39 23.3588 151.327 23.7158 151.197 24.0502C151.067 24.3846 150.871 24.6897 150.622 24.9476C150.372 25.2055 150.074 25.411 149.744 25.5523C149.414 25.6935 149.059 25.7676 148.7 25.7701V25.7201ZM148.7 27.7201C149.656 27.7219 150.59 27.4391 151.384 26.9077C152.179 26.3763 152.796 25.6204 153.159 24.7364C153.522 23.8524 153.613 22.8803 153.421 21.9442C153.23 21.0082 152.763 20.1504 152.082 19.4805C151.401 18.8105 150.535 18.3586 149.596 18.1825C148.657 18.0064 147.686 18.114 146.809 18.4916C145.931 18.8692 145.185 19.4997 144.667 20.3027C144.149 21.1056 143.882 22.0447 143.9 23.0001C143.916 24.2646 144.428 25.4722 145.326 26.3626C146.224 27.253 147.436 27.7549 148.7 27.7601V27.7201Z" fill="white"/>
<path fill-rule="evenodd" clip-rule="evenodd" d="M157 25.72V20.18H158.18C158.915 20.18 159.619 20.4718 160.139 20.9913C160.658 21.5108 160.95 22.2154 160.95 22.95C160.95 23.6847 160.658 24.3892 160.139 24.9087C159.619 25.4282 158.915 25.72 158.18 25.72H157ZM154.88 27.65H158.18C159.426 27.65 160.622 27.1548 161.503 26.2734C162.385 25.392 162.88 24.1965 162.88 22.95C162.88 21.7035 162.385 20.508 161.503 19.6266C160.622 18.7452 159.426 18.25 158.18 18.25H154.88V27.65Z" fill="white"/>
<path d="M117.56 31.1802H111.94V32.6902H117.56V31.1802Z" fill="white"/>
<path d="M117.56 39.0698H111.94V40.5798H117.56V39.0698Z" fill="white"/>
<path d="M117.56 35.1299H111.94V36.6399H117.56V35.1299Z" fill="white"/>
<path d="M193.84 31.1802H188.22V32.6902H193.84V31.1802Z" fill="white"/>
<path d="M193.84 39.0698H188.22V40.5798H193.84V39.0698Z" fill="white"/>
<path d="M193.84 35.1299H188.22V36.6399H193.84V35.1299Z" fill="white"/>
<path fill-rule="evenodd" clip-rule="evenodd" d="M25.38 18.13V43.21C24.1799 43.4066 22.9661 43.507 21.75 43.51C18.8929 43.51 16.0638 42.9471 13.4243 41.8534C10.7848 40.7598 8.3867 39.1568 6.36689 37.136C4.34709 35.1153 2.7452 32.7164 1.65275 30.0764C0.5603 27.4365 -0.00131131 24.6071 2.29906e-06 21.75V2.2978e-06H7.25V5.54C11.2387 1.97538 16.4006 0.00490908 21.75 0.00490908C27.0994 0.00490908 32.2613 1.97538 36.25 5.54V2.2978e-06H43.5V21.75C43.503 25.5698 42.4999 29.323 40.5917 32.632C38.6835 35.9411 35.9375 38.6892 32.63 40.6V31.35C34.7191 28.9808 35.9773 25.9942 36.2135 22.8443C36.4497 19.6945 35.6508 16.5536 33.9384 13.8994C32.226 11.2451 29.6937 9.22264 26.7265 8.13944C23.7593 7.05624 20.5196 6.97157 17.4999 7.89831C14.4802 8.82504 11.8457 10.7125 9.99701 13.2737C8.14829 15.8348 7.18646 18.9297 7.25778 22.0876C7.32909 25.2455 8.42964 28.2937 10.3921 30.7688C12.3545 33.2439 15.0715 35.0105 18.13 35.8V25.38H11.5C10.6736 23.034 10.6736 20.476 11.5 18.13H25.38ZM76.14 7.71V35.8C79.2509 34.9929 82.0058 33.1758 83.9724 30.6338C85.9391 28.0919 87.0061 24.9689 87.0061 21.755C87.0061 18.5411 85.9391 15.4181 83.9724 12.8762C82.0058 10.3342 79.2509 8.51711 76.14 7.71ZM68.89 35.8V25.38H62.26C61.4336 23.034 61.4336 20.476 62.26 18.13H68.89V7.71C65.7791 8.51711 63.0242 10.3342 61.0576 12.8762C59.0909 15.4181 58.0239 18.5411 58.0239 21.755C58.0239 24.9689 59.0909 28.0919 61.0576 30.6338C63.0242 33.1758 65.7791 34.9929 68.89 35.8ZM72.51 2.2978e-06C76.8146 -0.00197545 81.023 1.2728 84.603 3.66306C88.1829 6.05332 90.9735 9.45166 92.6217 13.4282C94.2699 17.4047 94.7017 21.7808 93.8624 26.0027C93.0231 30.2247 90.9504 34.1029 87.9066 37.1466C84.8628 40.1904 80.9847 42.2631 76.7627 43.1024C72.5408 43.9417 68.1647 43.5099 64.1882 41.8617C60.2117 40.2135 56.8133 37.4229 54.4231 33.843C52.0328 30.263 50.758 26.0546 50.76 21.75C50.76 15.9815 53.0515 10.4493 57.1304 6.37043C61.2093 2.29151 66.7415 2.2978e-06 72.51 2.2978e-06Z" fill="white"/>
</g>
<defs>
<clipPath id="clip0_230_265">
<rect width="200.84" height="43.51" fill="white"/>
</clipPath>
</defs>
</svg>
